# xmcd
#
# Track frame offsets:
#	150
#	42995
#	45272
#	50517
#
# Disc length: 1069 seconds
#
# Revision: 0
# Processed by: cddbd v1.5.2PL0 Copyright (c) Steve Scherf et al.
# Submitted via: EasyCDDAExtractor 9.0.0.1
#
DISCID=2a042b04
DTITLE=C and C Music Factory Presents Freedom Williams and Zelma Davis - Here We
DTITLE=Go
DYEAR=1900
DGENRE=
TTITLE0=Here We Go (The C+C Rockin' in 91 Mix)
TTITLE1=Here We Go (Zelma Sings)
TTITLE2=Here We Go (The Rockin' in 91 Dub)
TTITLE3=Here We Go (The Cole-Clivilles House Mix)
EXTD=
EXTT0=
EXTT1=
EXTT2=
EXTT3=
PLAYORDER=
